<svg width="177" height="47" viewBox="0 0 177 47" fill="none" xmlns="http://www.w3.org/2000/svg">
<path d="M10.154 31.392C8.458 31.392 6.826 31.136 5.258 30.624C3.722 30.144 2.474 29.328 1.514 28.176C0.554 27.024 0.0740001 25.472 0.0740001 23.52C0.0740001 21.44 0.474 19.408 1.274 17.424C2.074 15.44 3.146 13.6 4.49 11.904C5.834 10.176 7.338 8.688 9.002 7.44C10.474 6.32 12.17 5.408 14.09 4.704C16.042 4 17.978 3.648 19.898 3.648C20.698 3.648 21.45 3.712 22.154 3.84C22.858 3.936 23.578 4.16 24.314 4.512C24.954 4.8 25.466 5.168 25.85 5.616C26.234 6.032 26.426 6.512 26.426 7.056C26.426 7.12 26.426 7.2 26.426 7.296C26.426 7.392 26.41 7.472 26.378 7.536C26.25 8.048 25.946 8.64 25.466 9.312C25.018 9.952 24.666 10.624 24.41 11.328C24.378 11.456 24.202 11.568 23.882 11.664C23.562 11.728 23.434 11.696 23.498 11.568C23.754 11.152 23.946 10.64 24.074 10.032C24.234 9.424 24.314 8.816 24.314 8.208C24.314 7.76 24.266 7.344 24.17 6.96C24.106 6.544 23.978 6.192 23.786 5.904C23.466 5.328 22.97 4.928 22.298 4.704C21.626 4.48 20.906 4.368 20.138 4.368C19.402 4.368 18.666 4.448 17.93 4.608C17.194 4.768 16.554 4.944 16.01 5.136C14.154 5.808 12.378 6.864 10.682 8.304C9.178 9.616 7.834 11.136 6.65 12.864C5.498 14.592 4.586 16.368 3.914 18.192C3.242 20.016 2.906 21.76 2.906 23.424C2.906 25.12 3.274 26.464 4.01 27.456C4.746 28.448 5.706 29.152 6.89 29.568C8.074 29.984 9.354 30.192 10.73 30.192C11.946 30.192 13.146 30.064 14.33 29.808C15.546 29.552 16.65 29.232 17.642 28.848C19.338 28.208 20.858 27.424 22.202 26.496C23.578 25.568 24.858 24.368 26.042 22.896C26.202 22.736 26.314 22.656 26.378 22.656C26.474 22.656 26.522 22.72 26.522 22.848C26.522 23.104 26.394 23.408 26.138 23.76C25.05 25.232 23.818 26.464 22.442 27.456C21.066 28.448 19.594 29.264 18.026 29.904C16.97 30.32 15.738 30.672 14.33 30.96C12.954 31.248 11.562 31.392 10.154 31.392ZM25.9625 30.096C25.4505 30.096 24.9865 30 24.5705 29.808C24.1865 29.584 23.9945 29.12 23.9945 28.416C23.9945 27.296 24.2825 26.176 24.8585 25.056C25.4345 23.904 26.0265 22.896 26.6345 22.032C27.1785 21.296 27.7865 20.608 28.4585 19.968C29.1625 19.296 29.9145 18.72 30.7145 18.24C31.2265 17.92 31.9145 17.584 32.7785 17.232C33.6745 16.848 34.4265 16.656 35.0345 16.656C35.5465 16.656 35.9945 16.8 36.3785 17.088C36.7625 17.344 36.9545 17.824 36.9545 18.528C36.9545 19.616 36.6665 20.736 36.0905 21.888C35.5465 23.008 34.9705 24 34.3625 24.864C34.0745 25.248 33.7865 25.616 33.4985 25.968C33.2105 26.288 32.8905 26.624 32.5385 26.976C33.7225 26.976 34.8105 26.64 35.8025 25.968C36.7945 25.264 37.6585 24.416 38.3945 23.424L38.4905 23.328C38.5865 23.328 38.6345 23.424 38.6345 23.616C38.6345 23.84 38.5705 24.048 38.4425 24.24C37.8025 25.136 37.0025 25.936 36.0425 26.64C35.0825 27.312 33.9945 27.648 32.7785 27.648C32.6505 27.648 32.5225 27.648 32.3945 27.648C32.2665 27.648 32.1385 27.632 32.0105 27.6C30.2185 29.264 28.2025 30.096 25.9625 30.096ZM27.2105 29.28C27.6585 29.28 28.1385 29.12 28.6505 28.8C29.1945 28.48 29.6105 28.176 29.8985 27.888C30.4425 27.344 30.9385 26.768 31.3865 26.16C31.8345 25.52 32.2505 24.88 32.6345 24.24C33.0825 23.472 33.5305 22.56 33.9785 21.504C34.4265 20.448 34.6505 19.456 34.6505 18.528C34.6505 17.792 34.3945 17.424 33.8825 17.424C33.4665 17.424 32.9545 17.6 32.3465 17.952C31.7705 18.304 31.3385 18.624 31.0505 18.912C29.9625 20.032 29.0505 21.248 28.3145 22.56C27.8985 23.296 27.4505 24.16 26.9705 25.152C26.4905 26.144 26.2505 27.056 26.2505 27.888C26.2505 28.016 26.2505 28.144 26.2505 28.272C26.2825 28.368 26.3145 28.48 26.3465 28.608C26.4745 29.056 26.7625 29.28 27.2105 29.28ZM44.4256 30.144C44.1056 30.144 43.8336 30.08 43.6096 29.952C43.3856 29.824 43.2736 29.584 43.2736 29.232C43.2736 28.784 43.3856 28.272 43.6096 27.696C43.8336 27.12 44.0896 26.56 44.3776 26.016C44.6656 25.44 44.9216 24.976 45.1456 24.624C44.0256 25.808 42.8576 26.928 41.6416 27.984C41.0336 28.496 40.3616 28.976 39.6256 29.424C38.8896 29.872 38.1056 30.096 37.2736 30.096C36.9536 30.096 36.7296 30 36.6016 29.808C36.4736 29.584 36.4096 29.328 36.4096 29.04C36.4096 28.88 36.4256 28.768 36.4576 28.704C36.6176 27.456 37.0176 26.16 37.6576 24.816C38.2976 23.472 39.0816 22.208 40.0096 21.024C40.9376 19.84 41.8816 18.88 42.8416 18.144C43.5776 17.6 44.2816 17.264 44.9536 17.136C45.6256 16.976 46.3616 16.896 47.1616 16.896H48.7456C49.2576 16.032 49.7856 15.072 50.3296 14.016C50.9056 12.928 51.4656 11.856 52.0096 10.8C52.5856 9.744 53.1136 8.816 53.5936 8.016C54.9056 5.776 56.3456 3.984 57.9136 2.64C59.5136 1.296 61.2896 0.623998 63.2416 0.623998C63.6576 0.623998 64.0416 0.751998 64.3936 1.008C64.7456 1.232 64.9056 1.584 64.8736 2.064L64.7776 3.792C64.7776 3.824 64.7456 3.872 64.6816 3.936C64.6176 3.968 64.5696 3.984 64.5376 3.984C64.5056 3.984 64.4576 3.952 64.3936 3.888C64.2976 3.312 64.0096 2.88 63.5296 2.592C63.0496 2.272 62.4576 2.112 61.7536 2.112C61.5296 2.112 61.2736 2.128 60.9856 2.16C60.7296 2.192 60.4736 2.256 60.2176 2.352C59.3216 2.672 58.4736 3.328 57.6736 4.32C56.8736 5.28 56.0096 6.56 55.0816 8.16C54.7616 8.768 54.3456 9.568 53.8336 10.56C53.3216 11.52 52.7776 12.56 52.2016 13.68C51.6576 14.8 51.1296 15.888 50.6176 16.944C50.1376 18 49.7216 18.896 49.3696 19.632C49.2096 20.016 48.9376 20.608 48.5536 21.408C48.1696 22.176 47.7536 23.024 47.3056 23.952C46.8896 24.848 46.5216 25.68 46.2016 26.448C45.9136 27.216 45.7696 27.76 45.7696 28.08C45.7696 28.528 45.9616 28.752 46.3456 28.752C46.7296 28.752 47.2416 28.528 47.8816 28.08C48.5216 27.6 49.1776 27.024 49.8496 26.352C50.5536 25.648 51.1776 24.976 51.7216 24.336C52.2976 23.696 52.6976 23.216 52.9216 22.896C53.0176 22.992 53.0656 23.104 53.0656 23.232C53.0656 23.456 52.9696 23.68 52.7776 23.904C52.6176 24.128 52.4736 24.32 52.3456 24.48C51.7696 25.248 51.0496 26.08 50.1856 26.976C49.3536 27.84 48.4416 28.592 47.4496 29.232C46.4576 29.84 45.4496 30.144 44.4256 30.144ZM39.2416 28.464C39.6256 28.464 40.1536 28.192 40.8256 27.648C41.5296 27.072 42.2816 26.368 43.0816 25.536C43.8816 24.672 44.6336 23.776 45.3376 22.848C46.0416 21.888 46.6176 21.024 47.0656 20.256C47.5456 19.456 47.7856 18.848 47.7856 18.432C47.7856 18.08 47.6736 17.84 47.4496 17.712C47.2576 17.584 47.0016 17.52 46.6816 17.52C46.1696 17.52 45.6096 17.712 45.0016 18.096C44.4256 18.448 43.9616 18.8 43.6096 19.152C43.2256 19.504 42.7616 20.064 42.2176 20.832C41.7056 21.568 41.1936 22.384 40.6816 23.28C40.1696 24.176 39.7376 25.04 39.3856 25.872C39.0336 26.704 38.8576 27.376 38.8576 27.888C38.8576 28.272 38.9856 28.464 39.2416 28.464ZM54.743 30.384C53.431 30.384 52.519 30.128 52.007 29.616C51.495 29.104 51.239 28.48 51.239 27.744C51.239 26.816 51.479 25.824 51.959 24.768C52.471 23.712 52.951 22.816 53.399 22.08C53.911 21.312 54.599 20.512 55.463 19.68C56.327 18.848 57.271 18.144 58.295 17.568C59.319 16.992 60.311 16.704 61.271 16.704C62.103 16.704 62.679 16.912 62.999 17.328C63.319 17.712 63.479 18.176 63.479 18.72C63.479 19.712 63.175 20.528 62.567 21.168C61.991 21.808 61.271 22.336 60.407 22.752C59.543 23.136 58.711 23.456 57.911 23.712C57.431 23.84 56.871 23.968 56.231 24.096C55.591 24.224 54.983 24.288 54.407 24.288C54.183 24.864 54.007 25.424 53.879 25.968C53.751 26.512 53.687 27.008 53.687 27.456C53.687 28 53.815 28.448 54.071 28.8C54.359 29.152 54.823 29.328 55.463 29.328C55.719 29.328 56.023 29.296 56.375 29.232C56.727 29.168 57.111 29.072 57.527 28.944C58.487 28.624 59.431 28.112 60.359 27.408C61.287 26.704 62.135 25.952 62.903 25.152C63.703 24.32 64.311 23.632 64.727 23.088C64.823 23.184 64.871 23.296 64.871 23.424C64.871 23.584 64.759 23.84 64.535 24.192C63.895 25.088 63.063 26.016 62.039 26.976C61.015 27.936 59.879 28.752 58.631 29.424C57.383 30.064 56.087 30.384 54.743 30.384ZM54.791 23.328C55.207 23.36 55.671 23.36 56.183 23.328C56.727 23.264 57.255 23.152 57.767 22.992C59.079 22.608 60.023 22 60.599 21.168C61.207 20.304 61.511 19.536 61.511 18.864C61.511 18.48 61.431 18.16 61.271 17.904C61.111 17.648 60.855 17.52 60.503 17.52C59.575 17.52 58.743 17.872 58.007 18.576C57.271 19.248 56.631 20.032 56.087 20.928C55.543 21.824 55.111 22.624 54.791 23.328ZM72.3575 30.72C72.2295 30.72 72.2295 30.576 72.3575 30.288C72.5175 30 72.6615 29.68 72.7895 29.328C72.9495 28.976 73.1095 28.592 73.2695 28.176C73.5895 27.408 73.9415 26.544 74.3255 25.584C74.7095 24.624 75.0775 23.696 75.4295 22.8C75.7815 21.872 76.0855 21.088 76.3415 20.448C76.6295 19.776 76.8215 19.344 76.9175 19.152C76.4695 19.632 75.9255 20.24 75.2855 20.976C74.6775 21.68 74.1015 22.368 73.5575 23.04C73.0135 23.712 72.5975 24.24 72.3095 24.624C72.2135 24.752 72.1335 24.816 72.0695 24.816C72.0055 24.816 71.9735 24.736 71.9735 24.576C71.9735 24.32 72.0535 24.08 72.2135 23.856C72.8215 23.088 73.4935 22.224 74.2295 21.264C74.9975 20.304 75.6855 19.424 76.2935 18.624C76.9015 17.792 77.2855 17.248 77.4455 16.992C77.7975 16.928 78.3095 16.832 78.9815 16.704C79.6855 16.576 80.1655 16.4 80.4215 16.176C80.5175 16.08 80.6135 16.032 80.7095 16.032C80.7735 16.032 80.8055 16.096 80.8055 16.224C80.8375 16.32 80.8055 16.432 80.7095 16.56C80.5175 16.784 80.1815 17.312 79.7015 18.144C79.2535 18.944 78.7575 19.84 78.2135 20.832C77.7015 21.824 77.2215 22.72 76.7735 23.52C77.2855 22.912 77.7815 22.336 78.2615 21.792C78.7735 21.248 79.1255 20.864 79.3175 20.64C79.7015 20.256 80.2295 19.776 80.9015 19.2C81.5735 18.624 82.2775 18.096 83.0135 17.616C83.7495 17.136 84.3895 16.864 84.9335 16.8C85.0615 16.768 85.1735 16.752 85.2695 16.752C85.3655 16.752 85.4615 16.752 85.5575 16.752C86.1655 16.752 86.4695 16.976 86.4695 17.424C86.4695 17.616 86.4215 17.84 86.3255 18.096C86.2295 18.352 86.1015 18.608 85.9415 18.864C85.7495 19.248 85.4295 19.856 84.9815 20.688C84.5335 21.488 84.1335 22.224 83.7815 22.896L86.0375 20.64C86.4215 20.256 86.9495 19.776 87.6215 19.2C88.2935 18.624 88.9975 18.096 89.7335 17.616C90.4695 17.136 91.1095 16.864 91.6535 16.8C91.7815 16.768 91.8935 16.752 91.9895 16.752C92.1175 16.752 92.2135 16.752 92.2775 16.752C92.9815 16.752 93.3335 17.008 93.3335 17.52C93.3335 17.904 93.1255 18.416 92.7095 19.056C92.4855 19.408 92.1335 20 91.6535 20.832C91.1735 21.664 90.6775 22.576 90.1655 23.568C89.6855 24.528 89.2695 25.424 88.9175 26.256C88.5655 27.088 88.3895 27.696 88.3895 28.08C88.3895 28.528 88.6135 28.752 89.0615 28.752C89.4775 28.752 90.0055 28.512 90.6455 28.032C91.3175 27.52 91.9895 26.912 92.6615 26.208C93.3655 25.504 93.9735 24.832 94.4855 24.192C94.7095 23.936 94.9175 23.68 95.1095 23.424C95.3335 23.136 95.4615 22.976 95.4935 22.944C95.5575 23.008 95.5895 23.12 95.5895 23.28C95.5895 23.504 95.5095 23.728 95.3495 23.952C95.2215 24.144 95.0935 24.32 94.9655 24.48C94.3575 25.28 93.6535 26.112 92.8535 26.976C92.0855 27.84 91.2375 28.576 90.3095 29.184C89.3815 29.76 88.3895 30.096 87.3335 30.192C87.0135 30.224 86.6935 30.16 86.3735 30C86.0535 29.84 85.8935 29.584 85.8935 29.232C85.8935 28.784 86.0055 28.256 86.2295 27.648C86.4855 27.04 86.7575 26.432 87.0455 25.824C87.3655 25.216 87.6055 24.72 87.7655 24.336C88.3415 23.216 88.8695 22.16 89.3495 21.168C89.8295 20.176 90.1655 19.472 90.3575 19.056C90.4535 18.864 90.5015 18.704 90.5015 18.576C90.5015 18.352 90.3255 18.336 89.9735 18.528C89.6215 18.72 89.1895 19.008 88.6775 19.392C88.1975 19.776 87.7495 20.16 87.3335 20.544C86.9175 20.896 86.6455 21.136 86.5175 21.264C85.9735 21.808 85.3175 22.544 84.5495 23.472C83.8135 24.4 83.1255 25.376 82.4855 26.4C81.8455 27.392 81.3975 28.32 81.1415 29.184C80.8215 29.472 80.5175 29.616 80.2295 29.616C80.0055 29.616 79.8135 29.536 79.6535 29.376C79.5255 29.216 79.4615 29.024 79.4615 28.8C79.4615 28.16 79.6535 27.408 80.0375 26.544C80.4535 25.648 80.7895 24.912 81.0455 24.336C81.6215 23.216 82.1495 22.16 82.6295 21.168C83.1095 20.176 83.4455 19.472 83.6375 19.056C83.7335 18.864 83.7815 18.704 83.7815 18.576C83.7815 18.352 83.6055 18.336 83.2535 18.528C82.9015 18.72 82.4695 19.008 81.9575 19.392C81.4775 19.776 81.0295 20.16 80.6135 20.544C80.1975 20.896 79.9255 21.136 79.7975 21.264C79.0295 22.064 78.3095 22.88 77.6375 23.712C76.9975 24.544 76.4535 25.44 76.0055 26.4C75.7495 26.976 75.4775 27.616 75.1895 28.32C74.9015 29.024 74.6615 29.616 74.4695 30.096C74.0535 30.128 73.6375 30.24 73.2215 30.432C72.8055 30.624 72.5175 30.72 72.3575 30.72ZM89.6724 46.8C88.4564 46.8 87.2884 46.512 86.1684 45.936C85.0164 45.392 84.1684 44.544 83.6244 43.392C83.4324 42.976 83.3044 42.528 83.2404 42.048C83.1764 41.6 83.1444 41.152 83.1444 40.704V40.176C83.1444 39.92 83.1764 39.68 83.2404 39.456C83.3044 39.264 83.4644 39.168 83.7204 39.168C83.7844 39.168 83.8164 39.2 83.8164 39.264C83.8164 39.456 83.8004 39.648 83.7684 39.84C83.7364 40.032 83.7204 40.24 83.7204 40.464C83.7204 41.936 84.2004 43.056 85.1604 43.824C86.0884 44.592 87.2564 44.976 88.6644 44.976C89.2404 44.976 89.8324 44.912 90.4404 44.784C91.0484 44.656 91.6244 44.48 92.1684 44.256C94.1844 43.392 95.9284 42.16 97.4004 40.56C98.9044 38.992 100.216 37.216 101.336 35.232C102.456 33.248 103.464 31.232 104.36 29.184C104.872 27.968 105.32 26.784 105.704 25.632C106.12 24.48 106.488 23.44 106.808 22.512C106.488 22.96 106.072 23.504 105.56 24.144C105.048 24.784 104.536 25.408 104.024 26.016C103.512 26.592 103.064 27.056 102.68 27.408C101.88 28.176 101.016 28.832 100.088 29.376C99.1924 29.888 98.2644 30.144 97.3044 30.144C96.9844 30.144 96.7124 30.08 96.4884 29.952C96.2644 29.824 96.1524 29.584 96.1524 29.232C96.1524 28.784 96.2644 28.256 96.4884 27.648C96.7444 27.04 97.0164 26.432 97.3044 25.824C97.5924 25.216 97.8324 24.72 98.0244 24.336C98.4084 23.6 98.7764 22.864 99.1284 22.128C99.4804 21.392 99.7844 20.768 100.04 20.256C100.296 19.776 100.424 19.456 100.424 19.296C100.424 19.04 100.232 19.04 99.8484 19.296C99.4964 19.552 99.1604 19.808 98.8404 20.064C98.1364 20.736 97.4004 21.536 96.6324 22.464C95.8644 23.36 95.2724 24.08 94.8564 24.624C94.7604 24.752 94.6804 24.816 94.6164 24.816C94.5524 24.816 94.5204 24.736 94.5204 24.576C94.5204 24.32 94.6004 24.08 94.7604 23.856C95.2084 23.216 95.7364 22.512 96.3444 21.744C96.9524 20.976 97.5764 20.24 98.2164 19.536C98.8244 18.896 99.4484 18.272 100.088 17.664C100.728 17.056 101.544 16.752 102.536 16.752C103.208 16.752 103.544 17.008 103.544 17.52C103.544 17.968 103.352 18.48 102.968 19.056C102.744 19.408 102.392 20 101.912 20.832C101.432 21.664 100.936 22.576 100.424 23.568C99.9444 24.528 99.5284 25.424 99.1764 26.256C98.8244 27.088 98.6484 27.696 98.6484 28.08C98.6484 28.528 98.8724 28.752 99.3204 28.752C99.6724 28.752 100.104 28.576 100.616 28.224C101.128 27.84 101.656 27.392 102.2 26.88C103.128 25.984 103.976 24.992 104.744 23.904C105.544 22.816 106.232 21.776 106.808 20.784C106.904 20.624 107.064 20.336 107.288 19.92C107.544 19.504 107.8 19.104 108.056 18.72C108.344 18.336 108.568 18.112 108.728 18.048C108.888 17.984 109.208 17.808 109.688 17.52C110.168 17.232 110.648 17.04 111.128 16.944C111.576 16.848 111.912 16.8 112.136 16.8C112.488 16.8 112.664 16.896 112.664 17.088C112.664 17.344 112.52 17.472 112.232 17.472C111.88 17.472 111.56 17.568 111.272 17.76C110.984 17.92 110.76 18.128 110.6 18.384C110.312 18.8 109.896 19.552 109.352 20.64C108.84 21.728 108.264 22.992 107.624 24.432C107.016 25.84 106.408 27.28 105.8 28.752C105.192 30.192 104.632 31.52 104.12 32.736C103.352 34.56 102.472 36.336 101.48 38.064C100.488 39.824 99.3204 41.392 97.9764 42.768C96.6644 44.176 95.0964 45.28 93.2724 46.08C92.1844 46.56 90.9844 46.8 89.6724 46.8ZM117.978 30.336C117.946 30.368 117.914 30.384 117.882 30.384C117.786 30.384 117.738 30.24 117.738 29.952C117.738 29.76 117.786 29.568 117.882 29.376C118.01 29.152 118.234 29.024 118.554 28.992C119.45 28.928 120.298 28.624 121.098 28.08C121.898 27.536 122.602 26.896 123.21 26.16C123.818 25.392 124.25 24.672 124.506 24L128.922 12.96C129.53 11.456 130.218 10 130.986 8.592C131.786 7.184 132.794 6.032 134.01 5.136C135.258 4.24 136.826 3.792 138.714 3.792C139.45 3.792 140.186 3.888 140.922 4.08C141.69 4.24 142.33 4.512 142.842 4.896C143.354 5.28 143.61 5.824 143.61 6.528C143.61 6.624 143.61 6.72 143.61 6.816C143.61 6.912 143.594 7.008 143.562 7.104C143.466 7.616 143.178 8.128 142.698 8.64C142.25 9.152 141.898 9.792 141.642 10.56C141.61 10.784 141.466 10.896 141.21 10.896C140.986 10.896 140.938 10.752 141.066 10.464C141.322 10.08 141.514 9.632 141.642 9.12C141.802 8.576 141.882 8.032 141.882 7.488C141.882 6.656 141.69 5.92 141.306 5.28C140.922 4.64 140.266 4.32 139.338 4.32C138.506 4.32 137.658 4.56 136.794 5.04C135.93 5.52 135.178 6.352 134.538 7.536L125.658 23.904C124.826 25.44 124.058 26.544 123.354 27.216C122.682 27.856 122.122 28.256 121.674 28.416H133.242C134.778 28.416 136.202 28.368 137.514 28.272C138.826 28.176 139.626 27.936 139.914 27.552C140.234 27.104 140.394 26.624 140.394 26.112C140.394 25.312 139.962 24.72 139.098 24.336C139.002 24.272 138.954 24.208 138.954 24.144C138.954 24.08 138.986 24.016 139.05 23.952C139.146 23.888 139.258 23.888 139.386 23.952C139.674 24.08 140.01 24.368 140.394 24.816C140.81 25.232 141.194 25.696 141.546 26.208C141.898 26.688 142.122 27.072 142.218 27.36C142.314 27.648 142.362 27.936 142.362 28.224C142.362 29.536 141.226 30.192 138.954 30.192C137.162 30.192 135.242 30.128 133.194 30C131.146 29.872 129.114 29.728 127.098 29.568C125.114 29.408 123.242 29.296 121.482 29.232C120.81 29.168 120.138 29.264 119.466 29.52C118.826 29.744 118.33 30.016 117.978 30.336ZM155.46 11.664C155.012 11.664 154.692 11.52 154.5 11.232C154.372 11.072 154.308 10.864 154.308 10.608C154.308 10.096 154.548 9.68 155.028 9.36C155.38 9.168 155.7 9.072 155.988 9.072C156.468 9.072 156.804 9.216 156.996 9.504C157.124 9.664 157.188 9.872 157.188 10.128C157.188 10.64 156.932 11.056 156.42 11.376C156.132 11.568 155.812 11.664 155.46 11.664ZM147.108 30.144C146.788 30.144 146.516 30.08 146.292 29.952C146.1 29.824 146.004 29.584 146.004 29.232C146.004 28.784 146.116 28.256 146.34 27.648C146.596 27.04 146.868 26.432 147.156 25.824C147.476 25.216 147.716 24.72 147.876 24.336C148.1 23.888 148.372 23.312 148.692 22.608C149.044 21.872 149.364 21.184 149.652 20.544C149.972 19.872 150.196 19.408 150.324 19.152C149.876 19.632 149.332 20.24 148.692 20.976C148.084 21.68 147.508 22.368 146.964 23.04C146.42 23.712 146.004 24.24 145.716 24.624C145.62 24.752 145.54 24.816 145.476 24.816C145.412 24.816 145.38 24.736 145.38 24.576C145.38 24.32 145.46 24.08 145.62 23.856C146.228 23.088 146.9 22.224 147.636 21.264C148.404 20.304 149.092 19.424 149.7 18.624C150.308 17.792 150.692 17.248 150.852 16.992C151.204 16.928 151.716 16.832 152.388 16.704C153.092 16.576 153.572 16.4 153.828 16.176C153.924 16.08 154.02 16.032 154.116 16.032C154.18 16.032 154.212 16.096 154.212 16.224C154.244 16.32 154.212 16.432 154.116 16.56C153.924 16.784 153.588 17.328 153.108 18.192C152.628 19.056 152.116 20.016 151.572 21.072C151.06 22.096 150.58 23.024 150.132 23.856C149.684 24.72 149.3 25.552 148.98 26.352C148.66 27.152 148.5 27.728 148.5 28.08C148.5 28.528 148.724 28.752 149.172 28.752C149.588 28.752 150.116 28.496 150.756 27.984C151.428 27.472 152.1 26.864 152.772 26.16C153.444 25.424 154.036 24.752 154.548 24.144C154.708 23.952 154.9 23.728 155.124 23.472C155.38 23.184 155.54 23.008 155.604 22.944C155.668 23.008 155.7 23.12 155.7 23.28C155.668 23.504 155.588 23.728 155.46 23.952C155.332 24.144 155.204 24.32 155.076 24.48C154.404 25.312 153.668 26.176 152.868 27.072C152.068 27.936 151.188 28.672 150.228 29.28C149.268 29.856 148.228 30.144 147.108 30.144ZM143.574 40.848C142.326 40.848 141.286 40.64 140.454 40.224C139.59 39.84 139.014 39.248 138.726 38.448C138.694 38.352 138.678 38.256 138.678 38.16C138.646 38.064 138.63 37.952 138.63 37.824C138.63 37.344 138.742 36.8 138.966 36.192C139.19 35.616 139.43 34.992 139.686 34.32C139.782 34.128 139.894 34.032 140.022 34.032C140.246 34.032 140.31 34.192 140.214 34.512C139.99 34.992 139.878 35.504 139.878 36.048C139.878 37.168 140.374 38.064 141.366 38.736C142.326 39.44 143.43 39.792 144.678 39.792C145.638 39.792 146.566 39.568 147.462 39.12C148.966 38.352 150.198 37.296 151.158 35.952C152.118 34.608 152.966 33.248 153.702 31.872C154.822 29.728 155.782 27.488 156.582 25.152C157.414 22.784 158.294 20.448 159.222 18.144H158.118C157.958 18.144 157.782 18.16 157.59 18.192C157.398 18.224 157.222 18.256 157.062 18.288L156.966 18.24C157.03 17.888 157.334 17.584 157.878 17.328C158.454 17.04 158.902 16.896 159.222 16.896H159.798C160.278 15.744 160.838 14.48 161.478 13.104C162.15 11.728 162.87 10.352 163.638 8.976C164.406 7.568 165.238 6.288 166.134 5.136C167.062 3.984 168.022 3.072 169.014 2.4C170.646 1.248 172.454 0.672 174.438 0.672C174.822 0.672 175.19 0.799999 175.542 1.056C175.926 1.28 176.102 1.632 176.07 2.112L175.926 3.84C175.926 3.904 175.878 3.952 175.782 3.984C175.686 4.016 175.622 4 175.59 3.936C175.462 3.296 175.11 2.832 174.534 2.544C173.99 2.224 173.35 2.064 172.614 2.064C171.43 2.064 170.342 2.448 169.35 3.216C168.39 3.984 167.35 5.408 166.23 7.488C165.814 8.288 165.35 9.232 164.838 10.32C164.358 11.408 163.878 12.528 163.398 13.68C162.918 14.832 162.454 15.904 162.006 16.896H165.462C165.686 16.896 165.91 16.896 166.134 16.896C166.39 16.864 166.63 16.832 166.854 16.8C166.854 16.928 166.758 17.056 166.566 17.184C166.406 17.28 166.262 17.36 166.134 17.424C165.334 17.84 164.582 18.08 163.878 18.144C163.174 18.176 162.374 18.176 161.478 18.144C160.774 19.904 160.102 21.584 159.462 23.184C158.854 24.752 158.182 26.288 157.446 27.792C156.838 29.136 156.086 30.56 155.19 32.064C154.294 33.568 153.27 34.992 152.118 36.336C150.966 37.68 149.686 38.768 148.278 39.6C146.838 40.432 145.27 40.848 143.574 40.848ZM166.165 30.384C164.853 30.384 163.941 30.128 163.429 29.616C162.917 29.104 162.661 28.48 162.661 27.744C162.661 26.816 162.901 25.824 163.381 24.768C163.893 23.712 164.373 22.816 164.821 22.08C165.333 21.312 166.021 20.512 166.885 19.68C167.749 18.848 168.693 18.144 169.717 17.568C170.741 16.992 171.733 16.704 172.693 16.704C173.525 16.704 174.101 16.912 174.421 17.328C174.741 17.712 174.901 18.176 174.901 18.72C174.901 19.712 174.597 20.528 173.989 21.168C173.413 21.808 172.693 22.336 171.829 22.752C170.965 23.136 170.133 23.456 169.333 23.712C168.853 23.84 168.293 23.968 167.653 24.096C167.013 24.224 166.405 24.288 165.829 24.288C165.605 24.864 165.429 25.424 165.301 25.968C165.173 26.512 165.109 27.008 165.109 27.456C165.109 28 165.237 28.448 165.493 28.8C165.781 29.152 166.245 29.328 166.885 29.328C167.141 29.328 167.445 29.296 167.797 29.232C168.149 29.168 168.533 29.072 168.949 28.944C169.909 28.624 170.853 28.112 171.781 27.408C172.709 26.704 173.557 25.952 174.325 25.152C175.125 24.32 175.733 23.632 176.149 23.088C176.245 23.184 176.293 23.296 176.293 23.424C176.293 23.584 176.181 23.84 175.957 24.192C175.317 25.088 174.485 26.016 173.461 26.976C172.437 27.936 171.301 28.752 170.053 29.424C168.805 30.064 167.509 30.384 166.165 30.384ZM166.213 23.328C166.629 23.36 167.093 23.36 167.605 23.328C168.149 23.264 168.677 23.152 169.189 22.992C170.501 22.608 171.445 22 172.021 21.168C172.629 20.304 172.933 19.536 172.933 18.864C172.933 18.48 172.853 18.16 172.693 17.904C172.533 17.648 172.277 17.52 171.925 17.52C170.997 17.52 170.165 17.872 169.429 18.576C168.693 19.248 168.053 20.032 167.509 20.928C166.965 21.824 166.533 22.624 166.213 23.328Z" fill="black"/>
</svg>
